# xmcd CD database file generated by OrangeCD 5.2
#
# Track frame offsets:
#	187
#	10735
#	21935
#	33260
#	44217
#	55277
#	67895
#	80642
#	96202
#	106265
#	119270
#	131050
#	144430
#	157662
#	169897
#	184030
#	197182
#	210585
#	220760
#	233780
#	247357
#	260220
#	273170
#	285920
#
# Disc length: 3957 seconds
#
# Revision: 2
# Processed by: cddbd v1.5PL3 Copyright (c) Steve Scherf et al.
# Submitted via: OrangeCD 5.2
#
DISCID=5e0f7318
DTITLE=Howlin' Wolf - Howlin' Wolf/Moanin' In The Moonlight
DYEAR=1986
DGENRE=Blues
TTITLE0=Shake For Me
TTITLE1=The Red Rooster
TTITLE2=You'll Be Mine
TTITLE3=Who's Been Talkin'
TTITLE4=Wang Dang Doodle
TTITLE5=Little Baby
TTITLE6=Spoonful
TTITLE7=Going Down Slow
TTITLE8=Down In The Bottom
TTITLE9=Back Door Man
TTITLE10=Howlin' For My Baby
TTITLE11=Tell Me
TTITLE12=Moanin' At Midnight
TTITLE13=How Many More Years
TTITLE14=Smokestack Lightnin'
TTITLE15=Baby How Long
TTITLE16=No Place To Go
TTITLE17=All Night Boogie
TTITLE18=Evil
TTITLE19=I'm Leavin' You
TTITLE20=Moanin' For My Baby
TTITLE21=I Asked For Water
TTITLE22=Forty Four
TTITLE23=Somebody In My Home
EXTD=
EXTT0=
EXTT1=
EXTT2=
EXTT3=
EXTT4=
EXTT5=
EXTT6=
EXTT7=
EXTT8=
EXTT9=
EXTT10=
EXTT11=
EXTT12=
EXTT13=
EXTT14=
EXTT15=
EXTT16=
EXTT17=
EXTT18=
EXTT19=
EXTT20=
EXTT21=
EXTT22=
EXTT23=
PLAYORDER=
